# File created by Blade
# Date/Time:  Tue Sep 30 19:15:05 2014
# Frame Rate: 120.000 fps
#------------------------------------------------------
:FULLY-SPECIFIED
:DEGREES
2339
root -0.872098 33.259634 -3.370193 16.211018 -35.237653 -30.063464
Spine 7.060687 -0.396895 14.116176
Head -7.096359 -15.013169 19.173342
LeftShoulder 18.864322 6.902264 20.678902
LeftArm -4.940322 -17.998558 -80.550736
LeftForeArm -138.163032 13.300668 -14.411775
LeftHand -0.000025 36.142317 9.579041
LeftHandThumb1 30.357831 13.997178 22.438692
RightShoulder -11.338216 -22.701624 -13.539356
RightArm -0.980701 -21.300492 79.201345
RightForeArm 21.886094 -9.182232 21.664659
RightHand -0.000002 -9.621865 14.279359
RightHandThumb1 30.482666 -12.916435 -20.793814
LeftUpLeg -7.706341 20.121388 15.317891
LeftLeg 19.257900 0.000000 0.000000
LeftFoot -21.610161 28.711820 -0.865058
LeftToeBase 4.808000 -0.000000 -0.000000
RightUpLeg -89.422468 -35.503336 1.079538
RightLeg 4.269500 -0.000000 -0.000000
RightFoot 34.082282 -6.069873 -8.119503
RightToeBase 20.356001 -0.000000 -0.000000
2340
root -0.866198 33.256632 -3.376293 16.200317 -35.172576 -30.002880
Spine 6.971473 -0.372418 14.048342
Head -7.038841 -15.118154 19.177454
LeftShoulder 18.800324 6.890760 20.724132
LeftArm -5.040831 -17.932773 -80.578116
LeftForeArm -138.193091 13.365733 -14.492742
LeftHand -0.000044 36.234792 9.405816
LeftHandThumb1 30.357831 13.997178 22.438692
RightShoulder -11.353917 -22.695607 -13.539625
RightArm -1.195484 -21.341252 79.237412
RightForeArm 22.456897 -9.509873 21.787614
RightHand 0.000046 -9.578056 13.962579
RightHandThumb1 30.482666 -12.916435 -20.793814
LeftUpLeg -7.807827 19.997509 15.265850
LeftLeg 19.325600 0.000000 0.000000
LeftFoot -21.548224 28.733152 -0.702533
LeftToeBase 4.841200 -0.000000 -0.000000
RightUpLeg -89.305493 -35.414296 1.093704
RightLeg 4.461800 0.000000 0.000000
RightFoot 34.163994 -6.185705 -8.148712
RightToeBase 20.010099 0.000000 0.000000
2341
root -0.862098 33.254835 -3.382393 16.198191 -35.163930 -30.002814
Spine 6.953104 -0.283346 14.027662
Head -7.040538 -15.218325 19.174691
LeftShoulder 18.745461 6.946768 20.755746
LeftArm -5.076269 -17.932367 -80.567499
LeftForeArm -138.165532 13.359855 -14.473322
LeftHand 0.000045 36.301881 9.540211
LeftHandThumb1 30.357831 13.997178 22.438692
RightShoulder -11.355474 -22.818655 -13.562792
RightArm -1.340168 -21.251392 79.253740
RightForeArm 22.992809 -9.813658 21.884439
RightHand 0.000035 -9.700403 13.777820
RightHandThumb1 30.482666 -12.916435 -20.793814
LeftUpLeg -7.841372 19.974774 15.256037
LeftLeg 19.351999 -0.000000 -0.000000
LeftFoot -21.569650 28.780765 -0.767244
LeftToeBase 4.801500 -0.000000 -0.000000
RightUpLeg -89.155620 -35.264759 1.132086
RightLeg 4.770600 0.000000 0.000000
RightFoot 34.206255 -6.172802 -8.196741
RightToeBase 20.142401 -0.000000 -0.000000
2342
root -0.860698 33.249735 -3.380793 16.115215 -35.125235 -29.902569
Spine 6.932747 -0.287358 13.907507
Head -7.033788 -15.258131 19.187639
LeftShoulder 18.700134 7.022919 20.805727
LeftArm -5.187924 -17.857788 -80.489490
LeftForeArm -138.152527 13.300307 -14.406313
LeftHand 0.000072 36.248124 9.458466
LeftHandThumb1 30.357831 13.997178 22.438692
RightShoulder -11.435279 -22.830767 -13.518367
RightArm -1.076953 -21.428669 79.204734
RightForeArm 23.842945 -10.113236 21.668836
RightHand 0.000008 -9.955455 13.203672
RightHandThumb1 30.482666 -12.916435 -20.793814
LeftUpLeg -7.834745 19.894509 15.175822
LeftLeg 19.319401 0.000000 0.000000
LeftFoot -21.503977 28.776422 -0.665874
LeftToeBase 4.643900 -0.000000 0.000000
RightUpLeg -88.925436 -35.209006 0.982288
RightLeg 5.187200 -0.000000 0.000000
RightFoot 34.180400 -6.082276 -8.200517
RightToeBase 20.083099 -0.000000 0.000000
2343
root -0.850398 33.242132 -3.377893 15.996851 -35.111541 -29.706708
Spine 6.876438 -0.245093 13.687855
Head -6.984551 -15.363704 19.239848
LeftShoulder 18.728686 7.047368 20.875008
LeftArm -5.351530 -17.918715 -80.423664
LeftForeArm -138.119346 13.209165 -14.297365
LeftHand 0.000024 36.350414 9.390459
LeftHandThumb1 30.357831 13.997178 22.438692
RightShoulder -11.452319 -22.840361 -13.466773
RightArm -1.273281 -21.439970 79.213364
RightForeArm 24.387050 -10.420023 21.749509
RightHand -0.000028 -10.092624 12.963786
RightHandThumb1 30.482666 -12.916435 -20.793814
LeftUpLeg -7.840957 19.750676 15.000392
LeftLeg 19.288700 -0.000000 -0.000000
LeftFoot -21.412311 28.809616 -0.506404
LeftToeBase 4.689400 -0.000000 -0.000000
RightUpLeg -88.760198 -35.146380 0.811551
RightLeg 5.673400 -0.000000 -0.000000
RightFoot 34.372115 -5.998688 -8.134544
RightToeBase 20.287100 -0.000000 -0.000000
2344
root -0.839798 33.234732 -3.376293 15.910485 -35.137721 -29.523604
Spine 6.802378 -0.170950 13.464243
Head -6.929416 -15.467920 19.298843
LeftShoulder 18.757517 7.082192 20.962191
LeftArm -5.478610 -17.878304 -80.328092
LeftForeArm -138.120834 13.203109 -14.291906
LeftHand -0.000070 36.328729 9.135561
LeftHandThumb1 30.357831 13.997178 22.438692
RightShoulder -11.509672 -22.810551 -13.395851
RightArm -1.713133 -21.531008 79.252324
RightForeArm 24.941833 -10.838105 22.014101
RightHand 0.000007 -10.211395 12.742565
RightHandThumb1 30.482666 -12.916435 -20.793814
LeftUpLeg -7.867085 19.699985 14.802895
LeftLeg 19.269600 -0.000000 -0.000000
LeftFoot -21.373392 28.897946 -0.390544
LeftToeBase 4.737300 -0.000000 -0.000000
RightUpLeg -88.638038 -35.012998 0.667033
RightLeg 6.236600 -0.000000 0.000000
RightFoot 34.730169 -6.321344 -8.009143
RightToeBase 20.136499 -0.000000 0.000000
2345
root -0.833798 33.228933 -3.367093 15.744997 -35.148622 -29.347459
Spine 6.822308 -0.136340 13.261526
Head -6.894185 -15.550982 19.351822
LeftShoulder 18.827141 7.142370 21.032823
LeftArm -5.520961 -17.871167 -80.195411
LeftForeArm -138.074153 13.051166 -14.114593
LeftHand -0.000015 36.215612 9.487243
LeftHandThumb1 30.357831 13.997178 22.438692
RightShoulder -11.636854 -22.703997 -13.312193
RightArm -2.088587 -21.666316 79.230170
RightForeArm 25.425870 -11.161836 22.156439
RightHand 0.000010 -10.245731 12.756706
RightHandThumb1 30.482666 -12.916435 -20.793814
LeftUpLeg -7.768812 19.665836 14.648084
LeftLeg 19.181900 0.000000 0.000000
LeftFoot -21.360818 28.932205 -0.408776
LeftToeBase 4.721500 -0.000000 -0.000000
RightUpLeg -88.337209 -34.946233 0.412048
RightLeg 6.834300 -0.000000 -0.000000
RightFoot 34.879272 -6.099722 -7.988240
RightToeBase 20.167700 -0.000000 -0.000000
